<?xml version="1.0" standalone="no"?>
<!DOCTYPE svg PUBLIC "-//W3C//DTD SVG 1.1//EN" "http://www.w3.org/Graphics/SVG/1/1/DTD/svg11.dtd">
<svg width="1000" height="600" version="1.1" xmlns="http://www.w3.org/2000/svg">
<rect width="100%" height="100%" fill="white"/><title>maison.logo</title>
<line x1 = "500" y1 = "300" x2 = "600" y2 = "300" style = "stroke:#1f56d2"/>
<line x1 = "600" y1 = "300" x2 = "600" y2 = "300" style = "stroke:#1f56d2"/>
<line x1 = "600" y1 = "300" x2 = "555" y2 = "210" style = "stroke:#1f56d2"/>
<line x1 = "555" y1 = "210" x2 = "555" y2 = "210" style = "stroke:#1f56d2"/>
<line x1 = "555" y1 = "210" x2 = "485" y2 = "204" style = "stroke:#1f56d2"/>
<line x1 = "485" y1 = "204" x2 = "485" y2 = "204" style = "stroke:#1f56d2"/>
<line x1 = "485" y1 = "204" x2 = "511" y2 = "269" style = "stroke:#1f56d2"/>
<line x1 = "511" y1 = "269" x2 = "511" y2 = "269" style = "stroke:#1f56d2"/>
<line x1 = "511" y1 = "269" x2 = "482" y2 = "173" style = "stroke:#1f56d2"/>
<line x1 = "482" y1 = "173" x2 = "482" y2 = "173" style = "stroke:#1f56d2"/>
<line x1 = "482" y1 = "173" x2 = "534" y2 = "304" style = "stroke:#1f56d2"/>
<line x1 = "534" y1 = "304" x2 = "534" y2 = "304" style = "stroke:#1f56d2"/>
<line x1 = "534" y1 = "304" x2 = "436" y2 = "287" style = "stroke:#1f56d2"/>
<line x1 = "436" y1 = "287" x2 = "436" y2 = "287" style = "stroke:#1f56d2"/>
<line x1 = "436" y1 = "287" x2 = "530" y2 = "182" style = "stroke:#1f56d2"/>
</svg>